<?xml version="1.0" encoding="utf-8"?>
<svg version="1.1" xmlns="http://www.w3.org/2000/svg" xmlns:xlink="http://www.w3.org/1999/xlink" x="0px" y="0px" width="1024px"
	 height="1024px" viewBox="0 0 1024 1024" style="enable-background:new 0 0 1024 1024;" xml:space="preserve">
<path d="M512,160c-194.4,0-352,157.6-352,352s157.6,352,352,352s352-157.6,352-352S706.4,160,512,160z M512,800
	c-159.1,0-288-128.9-288-288s128.9-288,288-288s288,128.9,288,288S671.1,800,512,800z M384,731.4l238.9-157.7L640,288L401.1,445.7
	L384,731.4z M512,448c35.3,0,64,28.7,64,64s-28.7,64-64,64s-64-28.7-64-64S476.7,448,512,448z"/>
</svg>
